<svg width="1600" height="1000" viewBox="0 0 1600 1000" fill="none" xmlns="http://www.w3.org/2000/svg">
  <defs>
    <linearGradient id="bg" x1="184" y1="114" x2="1395" y2="905" gradientUnits="userSpaceOnUse">
      <stop stop-color="#FFF7E7"/>
      <stop offset="0.55" stop-color="#F7F3EC"/>
      <stop offset="1" stop-color="#E7F0EA"/>
    </linearGradient>
    <linearGradient id="sun" x1="255" y1="70" x2="492" y2="289" gradientUnits="userSpaceOnUse">
      <stop stop-color="#FFD66B"/>
      <stop offset="1" stop-color="#FF8F5B"/>
    </linearGradient>
    <linearGradient id="cardA" x1="0" y1="0" x2="436" y2="376" gradientUnits="userSpaceOnUse">
      <stop stop-color="#F4FFFA"/>
      <stop offset="1" stop-color="#DDF4E8"/>
    </linearGradient>
    <linearGradient id="cardB" x1="0" y1="0" x2="420" y2="360" gradientUnits="userSpaceOnUse">
      <stop stop-color="#FFF7F1"/>
      <stop offset="1" stop-color="#F7E5D4"/>
    </linearGradient>
    <linearGradient id="cardC" x1="0" y1="0" x2="390" y2="332" gradientUnits="userSpaceOnUse">
      <stop stop-color="#F7F8FF"/>
      <stop offset="1" stop-color="#E1E8FF"/>
    </linearGradient>
    <filter id="shadow" x="0" y="0" width="1600" height="1000" filterUnits="userSpaceOnUse" color-interpolation-filters="sRGB">
      <feFlood flood-opacity="0" result="BackgroundImageFix"/>
      <feColorMatrix in="SourceAlpha" type="matrix" values="0 0 0 0 0 0 0 0 0 0 0 0 0 0 0 0 0 0 127 0" result="hardAlpha"/>
      <feOffset dy="24"/>
      <feGaussianBlur stdDeviation="28"/>
      <feComposite in2="hardAlpha" operator="out"/>
      <feColorMatrix type="matrix" values="0 0 0 0 0.148 0 0 0 0 0.215 0 0 0 0 0.196 0 0 0 0.14 0"/>
      <feBlend mode="normal" in2="BackgroundImageFix" result="effect1_dropShadow_0_1"/>
      <feBlend mode="normal" in="SourceGraphic" in2="effect1_dropShadow_0_1" result="shape"/>
    </filter>
  </defs>

  <rect width="1600" height="1000" rx="48" fill="url(#bg)"/>
  <circle cx="360" cy="220" r="124" fill="url(#sun)" opacity="0.95"/>
  <path d="M0 758C137 692 280 673 429 700C624 735 740 847 978 840C1150 835 1360 763 1600 686V1000H0V758Z" fill="#DDE9DF"/>
  <path d="M0 814C168 738 353 736 528 782C674 820 784 891 945 894C1101 897 1309 825 1600 717V1000H0V814Z" fill="#C8DBCF"/>

  <g filter="url(#shadow)">
    <rect x="850" y="184" width="408" height="332" rx="34" transform="rotate(7 850 184)" fill="url(#cardC)"/>
    <rect x="790" y="252" width="432" height="360" rx="34" transform="rotate(-4 790 252)" fill="url(#cardB)"/>
    <rect x="748" y="326" width="454" height="388" rx="36" fill="url(#cardA)"/>
  </g>

  <rect x="815" y="394" width="116" height="18" rx="9" fill="#4F9F7A"/>
  <rect x="815" y="436" width="182" height="16" rx="8" fill="#1D4336" fill-opacity="0.78"/>
  <rect x="815" y="472" width="228" height="16" rx="8" fill="#1D4336" fill-opacity="0.24"/>

  <g>
    <circle cx="842" cy="560" r="28" fill="#EAF6EF"/>
    <path d="M830 560L840 570L856 551" stroke="#4F9F7A" stroke-width="8" stroke-linecap="round" stroke-linejoin="round"/>
    <rect x="888" y="548" width="210" height="20" rx="10" fill="#1D4336" fill-opacity="0.78"/>
  </g>

  <g>
    <circle cx="842" cy="624" r="28" fill="#FFF0E5"/>
    <path d="M830 624L840 634L856 615" stroke="#E67F49" stroke-width="8" stroke-linecap="round" stroke-linejoin="round"/>
    <rect x="888" y="612" width="168" height="20" rx="10" fill="#1D4336" fill-opacity="0.28"/>
  </g>

  <g>
    <circle cx="842" cy="688" r="28" fill="#EEF2FF"/>
    <path d="M830 688L840 698L856 679" stroke="#5D74D8" stroke-width="8" stroke-linecap="round" stroke-linejoin="round"/>
    <rect x="888" y="676" width="194" height="20" rx="10" fill="#1D4336" fill-opacity="0.2"/>
  </g>

  <rect x="96" y="104" width="210" height="44" rx="22" fill="#FFFFFF" fill-opacity="0.72"/>
  <text x="122" y="133" fill="#3C6D58" font-family="Georgia, 'Times New Roman', serif" font-size="24" font-weight="700" letter-spacing="1.6">DROPDROP BLOG</text>

  <text x="108" y="384" fill="#18211D" font-family="Georgia, 'Times New Roman', serif" font-size="88" font-weight="700">
    <tspan x="108" dy="0">Build a Morning</tspan>
    <tspan x="108" dy="102">Routine That</tspan>
    <tspan x="108" dy="102">Actually Sticks</tspan>
  </text>

  <text x="112" y="748" fill="#43524B" font-family="'Helvetica Neue', Arial, sans-serif" font-size="34" font-weight="500">
    <tspan x="112" dy="0">Habit stacking, tiny anchors, and a calmer</tspan>
    <tspan x="112" dy="48">way to start the day.</tspan>
  </text>
</svg>
